<svg width="23" height="20" viewBox="0 0 23 20" fill="none" xmlns="http://www.w3.org/2000/svg">
<g clip-path="url(#clip0)">
<path fill-rule="evenodd" clip-rule="evenodd" d="M19.1698 7.41935L22.8571 13.3333L19.6226 13.9785L20.2695 15.6989L14.6631 17.8495L13.1536 20H11.4286H9.7035L8.19407 17.8495L2.5876 15.6989L3.2345 13.9785L0 13.3333L3.68733 7.41935L2.15633 0L9.0566 3.44086H11.4286H13.8005L20.7008 0L19.1698 7.41935ZM6.03774 6.02151L7.54717 4.73118L3.8814 2.15054L6.03774 6.02151ZM5.73585 9.67742C8.30189 9.31183 9.03504 12.2581 9.03504 12.2581C6.27493 12.4301 5.73585 9.67742 5.73585 9.67742ZM18.0485 14.7097L18.0054 14.5806L17.2938 12.6882L19.2992 12.2796L20.097 12.129L17.7251 8.32258L17.3585 7.74194L17.4879 7.07527L18.3073 3.11828L18.0054 3.26882L12.7224 9.67742L13.8005 9.89247L11.2129 12.9032L10.7817 15.2688L10.8248 15.5699H11.4286H12.3989L12.7224 16.043L12.0108 16.9892H11.4286H11.0189L11.1914 18.2796H11.4286H12.248L13.2399 16.8817L13.5418 16.4516L14.0377 16.2581L18.0485 14.7097ZM13.8222 12.2581C16.5823 12.4301 17.1214 9.67744 17.1214 9.67744C14.5553 9.31185 13.8222 12.2581 13.8222 12.2581Z" fill="url(#paint0_linear)"/>
</g>
<defs>
<linearGradient id="paint0_linear" x1="11.4286" y1="0" x2="11.4286" y2="20" gradientUnits="userSpaceOnUse">
<stop stop-color="#F65D80"/>
<stop offset="1" stop-color="#6E80F8"/>
</linearGradient>
<clipPath id="clip0">
<rect width="22.8571" height="20" fill="white"/>
</clipPath>
</defs>
</svg>
