<svg width="16" height="16" viewBox="0 0 16 16" fill="none" xmlns="http://www.w3.org/2000/svg">
<path d="M10.8 9.86667C12.3333 8.93333 13.3333 7.26667 13.3333 5.33333C13.3333 2.4 10.9333 0 8 0C5.06667 0 2.66667 2.4 2.66667 5.33333C2.66667 7.26667 3.66667 8.93333 5.2 9.86667C2.53333 10.8667 0.533333 13.2 0 16H1.33333C2 12.9333 4.73333 10.6667 8 10.6667C11.2667 10.6667 14 12.9333 14.6667 16H16C15.4667 13.1333 13.4667 10.8 10.8 9.86667ZM4 5.33333C4 3.13333 5.8 1.33333 8 1.33333C10.2 1.33333 12 3.13333 12 5.33333C12 7.53333 10.2 9.33333 8 9.33333C5.8 9.33333 4 7.53333 4 5.33333Z" fill="#7B89B7"/>
</svg>
