<svg width="16" height="14" viewBox="0 0 16 14" fill="none" xmlns="http://www.w3.org/2000/svg">
<path d="M14 8.66667C13.2667 8.66667 12.6667 8.06667 12.6667 7.33333V4.66667C12.6667 2.06667 10.6 0 8 0C5.4 0 3.33333 2.06667 3.33333 4.66667V7.33333C3.33333 8.06667 2.73333 8.66667 2 8.66667C1.46667 8.66667 0.933333 8.86667 0.6 9.26667C0.2 9.6 0 10.1333 0 10.6667C0 11.8 0.866667 12.6667 2 12.6667H6.13333C6.4 13.4667 7.13333 14 8 14C8.86667 14 9.6 13.4667 9.86667 12.6667H14C15.1333 12.6667 16 11.8 16 10.6667C16 9.53333 15.1333 8.66667 14 8.66667ZM14 11.3333H2C1.6 11.3333 1.33333 11.0667 1.33333 10.6667C1.33333 10.4667 1.4 10.3333 1.53333 10.2C1.66667 10.0667 1.8 10 2 10C3.46667 10 4.66667 8.8 4.66667 7.33333V4.66667C4.66667 2.8 6.13333 1.33333 8 1.33333C9.86667 1.33333 11.3333 2.8 11.3333 4.66667V7.33333C11.3333 8.8 12.5333 10 14 10C14.4 10 14.6667 10.2667 14.6667 10.6667C14.6667 11.0667 14.4 11.3333 14 11.3333Z" fill="white"/>
</svg>
