<svg width="16" height="16" viewBox="0 0 16 16" fill="none" xmlns="http://www.w3.org/2000/svg">
<path d="M6 16H10V12H6V16ZM7.33333 13.3333H8.66667V14.6667H7.33333V13.3333ZM6 4H10V0H6V4ZM7.33333 1.33333H8.66667V2.66667H7.33333V1.33333ZM0 10H4V6H0V10ZM1.33333 7.33333H2.66667V8.66667H1.33333V7.33333ZM0 4H4V0H0V4ZM1.33333 1.33333H2.66667V2.66667H1.33333V1.33333ZM6 10H10V6H6V10ZM7.33333 7.33333H8.66667V8.66667H7.33333V7.33333ZM12 10H16V6H12V10ZM13.3333 7.33333H14.6667V8.66667H13.3333V7.33333ZM12 0V4H16V0H12ZM14.6667 2.66667H13.3333V1.33333H14.6667V2.66667ZM0 16H4V12H0V16ZM1.33333 13.3333H2.66667V14.6667H1.33333V13.3333ZM12 16H16V12H12V16ZM13.3333 13.3333H14.6667V14.6667H13.3333V13.3333Z" fill="#7B89B7"/>
</svg>
