<svg width="16" height="16" viewBox="0 0 16 16" fill="none" xmlns="http://www.w3.org/2000/svg">
<path d="M4.73333 8.33333L5.8 7.33333C5.13333 7.2 4.66667 6.66667 4.66667 6C4.66667 5.26667 5.26667 4.66667 6 4.66667C6.66667 4.66667 7.2 5.13333 7.33333 5.8L8.4 4.73333C7.93333 3.93333 7 3.33333 6 3.33333C4.53333 3.33333 3.33333 4.53333 3.33333 6C3.33333 7 3.93333 7.93333 4.73333 8.33333ZM8 0C3.6 0 0 3.6 0 8C0 12.4 3.6 16 8 16C12.4 16 16 12.4 16 8C16 3.6 12.4 0 8 0ZM8 14.6667C4.33333 14.6667 1.33333 11.6667 1.33333 8C1.33333 4.33333 4.33333 1.33333 8 1.33333C11.6667 1.33333 14.6667 4.33333 14.6667 8C14.6667 11.6667 11.6667 14.6667 8 14.6667ZM11.2667 3.73333L3.73333 11.2667L4.66667 12.2L6.66667 10.2C6.8 11.6 7.93333 12.6667 9.33333 12.6667C10.8 12.6667 12 11.4667 12 10C12 8.6 10.9333 7.46667 9.53333 7.33333L12.2667 4.66667L11.2667 3.73333ZM10.6667 10C10.6667 10.7333 10.0667 11.3333 9.33333 11.3333C8.6 11.3333 8 10.7333 8 10C8 9.26667 8.6 8.66667 9.33333 8.66667C10.0667 8.66667 10.6667 9.26667 10.6667 10Z" fill="white"/>
</svg>
