<svg width="12" height="16" viewBox="0 0 12 16" fill="none" xmlns="http://www.w3.org/2000/svg">
<g clip-path="url(#clip0)">
<path d="M0 13.6667C0 14.9524 1.04762 16 2.33333 16C3.61905 16 4.66667 14.9524 4.66667 13.6667V8H0V13.6667ZM1.33333 9.33333H3.33333V13.6667C3.33333 14.219 2.88571 14.6667 2.33333 14.6667C1.78095 14.6667 1.33333 14.219 1.33333 13.6667V9.33333Z" fill="#7B89B7"/>
<path d="M2.99996 0H1.66663V6.79048H2.99996V0Z" fill="#7B89B7"/>
<path d="M9.66658 10.7619V5.23809C10.8094 4.94285 11.6571 3.90476 11.6571 2.67619H10.3237C10.3237 3.40952 9.72373 3.99999 8.99992 3.99999C8.27611 3.99999 7.67611 3.4 7.67611 2.67619C7.67611 1.95238 8.27611 1.35238 8.99992 1.35238V0.019043C7.53325 0.019043 6.34277 1.20952 6.34277 2.67619C6.34277 3.91428 7.19039 4.94285 8.33325 5.23809V10.7619C7.19039 11.0571 6.34277 12.0952 6.34277 13.3238H7.67611C7.67611 12.5905 8.27611 12 8.99992 12C9.72373 12 10.3237 12.6 10.3237 13.3238C10.3237 14.0571 9.72373 14.6476 8.99992 14.6476V15.9809C10.4666 15.9809 11.6571 14.7905 11.6571 13.3238C11.6571 12.0952 10.8094 11.0667 9.66658 10.7619Z" fill="#7B89B7"/>
</g>
<defs>
<clipPath id="clip0">
<rect width="11.6571" height="16" fill="white"/>
</clipPath>
</defs>
</svg>
