<svg width="16" height="16" viewBox="0 0 16 16" fill="none" xmlns="http://www.w3.org/2000/svg">
<g clip-path="url(#clip0)">
<path fill-rule="evenodd" clip-rule="evenodd" d="M7.70737 3.26481L8.34875 3.90619L7.5131 4.74184L6.08438 3.31312L4.90407 4.49344C5.18296 4.54437 5.45817 4.62324 5.72548 4.73017L6.58281 5.0731C7.32241 5.36894 8.14747 5.36894 8.88706 5.0731L9.7444 4.73017C9.89562 4.66968 10.0494 4.61816 10.2049 4.57561L8.30074 2.67145L7.70737 3.26481ZM3.19911 4.5271L6.08438 1.64182L6.87172 2.42916L8.30074 1.00015L11.7439 4.44327C12.2111 4.48801 12.6723 4.60965 13.1082 4.80775L16.4996 6.50001L16.0106 7.57587L12.6191 5.88361C11.8488 5.53347 10.9689 5.51318 10.1833 5.82743L9.32597 6.17036C8.30462 6.5789 7.16526 6.5789 6.14391 6.17036L5.28657 5.82743C4.50095 5.51318 3.62105 5.53347 2.85075 5.88361L-0.0113844 7.24622L-0.500412 6.17036L2.36172 4.80775C2.63259 4.68463 2.91326 4.59104 3.19911 4.5271ZM10.1833 8.78195C10.6848 8.58134 11.2248 8.51706 11.7501 8.58791L9.44471 12.9426L8.11537 11.6132L6.06139 13.6672L3.53687 8.61816C4.11878 8.50394 4.72662 8.55797 5.28657 8.78195L6.14391 9.12489C7.16526 9.53342 8.30462 9.53343 9.32596 9.12489L10.1833 8.78195ZM-0.499925 10.5L2.42993 9.04685L5.73764 15.6623L8.11537 13.2845L9.7405 14.9097L12.8906 8.95937L16.511 10.5759L17.0001 9.5L13.1082 7.76227C12.0444 7.27875 10.8293 7.25072 9.74439 7.68469L8.88706 8.02762C8.14746 8.32346 7.32241 8.32346 6.58281 8.02762L5.72548 7.68469C4.64057 7.25072 3.42547 7.27875 2.36172 7.76227L-0.988953 9.42414L-0.499925 10.5Z" fill="#7B89B7"/>
</g>
<defs>
<clipPath id="clip0">
<rect width="16" height="16" fill="white"/>
</clipPath>
</defs>
</svg>
