<svg width="16" height="16" viewBox="0 0 16 16" fill="none" xmlns="http://www.w3.org/2000/svg">
<path d="M8 0C3.6 0 0 3.6 0 8C0 10.1333 0.8 12.1333 2.33333 13.6667C3.86667 15.2 5.86667 16 8 16V15.3333V16C12.4 16 16 12.4 16 8C16 3.6 12.4 0 8 0ZM8 14.6667V15.3333V14.6667C6.2 14.6667 4.53333 14 3.26667 12.7333C2 11.4667 1.33333 9.8 1.33333 8C1.33333 4.33333 4.33333 1.33333 8 1.33333C11.6667 1.33333 14.6667 4.33333 14.6667 8C14.6667 11.6667 11.6667 14.6667 8 14.6667Z" fill="white"/>
<path d="M8.66668 11V7.66667H7.33334V11H8.66668ZM8.66668 5H7.33334V6.33333H8.66668V5Z" fill="white"/>
</svg>
