<svg width="16" height="16" viewBox="0 0 16 16" fill="none" xmlns="http://www.w3.org/2000/svg">
<g opacity="0.8">
<path d="M2.66667 2V12.6667C2.66667 13.0667 2.4 13.3333 2 13.3333C1.6 13.3333 1.33333 13.0667 1.33333 12.6667V3.33333H0V12.6667C0 13.8 0.866667 14.6667 2 14.6667H14C15.1333 14.6667 16 13.8 16 12.6667V2H2.66667ZM14.6667 12.6667C14.6667 13.0667 14.4 13.3333 14 13.3333H3.86667C3.93333 13.1333 4 12.9333 4 12.6667V3.33333H14.6667V12.6667ZM10 4.66667H5.33333V9.33333H10V4.66667ZM8.66667 8H6.66667V6H8.66667V8ZM13.3333 10.6667H5.33333V12H13.3333V10.6667ZM13.3333 8H11.3333V9.33333H13.3333V8Z" fill="white"/>
</g>
</svg>
