<svg width="14" height="16" viewBox="0 0 14 16" fill="none" xmlns="http://www.w3.org/2000/svg">
<g clip-path="url(#clip0)">
<path d="M10.6 2.73333C10.3333 1.2 8.93333 0 7.33333 0H0V16H6.66667V14.6667H1.33333V1.33333H7.33333C8.46667 1.33333 9.33333 2.2 9.33333 3.33333V4H10C11.1333 4 12 4.86667 12 6V6.66667H13.3333V6C13.3333 4.4 12.1333 3 10.6 2.73333ZM12 8.66667H11.3333V8H10V8.66667H9.33333C8.6 8.66667 8 9.26667 8 10V10.8667C8 11.4667 8.33333 11.9333 8.93333 12.1333L12 13.1333V14H9.33333V13.3333H8V14C8 14.7333 8.6 15.3333 9.33333 15.3333H10V16H11.3333V15.3333H12C12.7333 15.3333 13.3333 14.7333 13.3333 14V13.1333C13.3333 12.5333 13 12.0667 12.4 11.8667L9.33333 10.8667V10H12V10.6667H13.3333V10C13.3333 9.26667 12.7333 8.66667 12 8.66667ZM2.66667 4V5.33333H6V4H2.66667ZM2.66667 8H8V6.66667H2.66667V8Z" fill="#7B89B7"/>
</g>
<defs>
<clipPath id="clip0">
<rect width="13.3333" height="16" fill="white"/>
</clipPath>
</defs>
</svg>
