<svg width="16" height="16" viewBox="0 0 16 16" fill="none" xmlns="http://www.w3.org/2000/svg">
<path d="M14.6667 7.06667L16 5.8L13.8667 2.13333L11.6667 2.8L10.6 2.2L10.1333 0H5.86667L5.46667 1.8L3.86667 2.66667L2.13333 2.13333L0 5.86667L1.33333 7.13333V8.93333L0 10.2L2.13333 13.8667L3.86667 13.3333L5.4 14.2667L5.86667 16H10.1333L10.5333 14.2L12.0667 13.2667L13.8 13.8L15.9333 10.1333L14.6 8.86667V7.06667H14.6667ZM14.2667 10.4L13.2 12.2667L11.8667 11.8667L9.33333 13.3333L9 14.6667H6.86667L6.53333 13.3333L4 11.8667L2.66667 12.2667L1.6 10.4L2.66667 9.46667V6.53333L1.66667 5.6L2.73333 3.73333L4.06667 4.13333L6.6 2.66667L6.93333 1.33333H9.06667L9.46667 3.06667L11.5333 4.26667L13.2667 3.73333L14.3333 5.6L13.3333 6.53333V9.46667L14.2667 10.4ZM8 4.66667C6.13333 4.66667 4.66667 6.13333 4.66667 8C4.66667 9.86667 6.13333 11.3333 8 11.3333C9.86667 11.3333 11.3333 9.86667 11.3333 8C11.3333 6.13333 9.8 4.66667 8 4.66667ZM8 10C6.86667 10 6 9.13333 6 8C6 6.86667 6.86667 6 8 6C9.13333 6 10 6.86667 10 8C10 9.13333 9.06667 10 8 10Z" fill="#7B89B7"/>
</svg>
