<svg width="16" height="16" viewBox="0 0 16 16" fill="none" xmlns="http://www.w3.org/2000/svg">
<g clip-path="url(#clip0)">
<path d="M10.6667 13.3332C10.6667 11.8665 9.46667 10.6665 8 10.6665C6.53333 10.6665 5.33333 11.8665 5.33333 13.3332C5.33333 14.7999 6.53333 15.9999 8 15.9999H10V14.6665H8C7.26667 14.6665 6.66667 14.0665 6.66667 13.3332C6.66667 12.5999 7.26667 11.9999 8 11.9999C8.73333 11.9999 9.33333 12.5999 9.33333 13.3332H10.6667ZM14 14.6665V2.06654C14 1.06654 13.3333 0.19987 12.4 -0.000130448C11.1333 -0.20013 10 0.79987 10 1.99987V8.66654C10 8.66654 10.8667 9.39987 11.3333 9.86654V1.99987C11.3333 1.59987 11.6 1.3332 12 1.3332C12.4 1.3332 12.6667 1.59987 12.6667 1.99987V14.6665H10.6667V15.9999H16V14.6665H14ZM2.66667 14.6665C1.93333 14.6665 1.33333 14.0665 1.33333 13.3332C1.33333 12.9332 1.53333 12.5999 1.8 12.3332L5.8 8.79987C6.4 8.26654 7.2 7.99987 8 7.99987C8.53333 7.99987 8.93333 8.1332 9.33333 8.26654V6.86654C8.93333 6.7332 8.46667 6.66654 8 6.66654C6.86667 6.66654 5.8 7.06654 4.93333 7.79987L0.933333 11.3332C0.333333 11.7999 0 12.5332 0 13.3332C0 14.7999 1.2 15.9999 2.66667 15.9999H5C4.66667 15.5999 4.4 15.1999 4.2 14.6665H2.66667Z" fill="#7B89B7"/>
</g>
<defs>
<clipPath id="clip0">
<rect width="16" height="16" fill="white"/>
</clipPath>
</defs>
</svg>
