<svg width="16" height="16" viewBox="0 0 16 16" fill="none" xmlns="http://www.w3.org/2000/svg">
<path d="M11.7377 16H13.0492V4.32787L11.7377 4.98361V16ZM8.78689 16H10.0984V5.77049L8.78689 6.42623V16ZM2.95082 16H4.2623V11.8033L2.95082 12.3279V16ZM5.83607 16H7.14754V10.5574L5.83607 11.082V16ZM14.6885 16H16V2.95082L14.6885 3.60656V16ZM6.16393 4.65574L5.77049 5.31148L5.83607 8.19672L0 10.623V11.3443V12.1311L6.7541 9.31147L7.14754 8.65574L7.08197 5.70492L15.9344 1.5082V0L6.16393 4.65574ZM0 16H1.31148V12.9836L0 13.5082V16Z" fill="#7B89B7"/>
</svg>
